# Blender 4.4.3
# www.blender.org
o Stele
v -0.260284 -0.110868 0.685616
v 0.843081 -0.106022 -0.682305
v -0.317413 1.790903 0.367964
v -0.436509 2.097872 0.307576
v -0.211129 -0.337590 0.506522
v -1.002540 -0.109761 0.705372
v -0.050472 2.214715 0.012737
v 0.606966 1.888044 0.532167
v 0.647334 1.890478 0.491399
v 0.535180 1.971010 0.472667
v 0.683892 -0.111503 0.505849
v 0.637252 -0.112172 0.552775
v 0.640303 1.887822 -0.503585
v -0.284377 1.877441 0.569286
v -0.738429 -0.336804 0.520556
v -0.631488 1.806858 -0.566107
v -0.718917 1.805818 -0.488405
v -0.643015 1.930934 -0.508267
v -0.861762 -0.094971 -0.611377
v -0.763431 -0.094610 -0.698811
v -0.777168 1.870619 0.567755
v -0.353194 1.876488 0.569073
v 0.572702 -0.334148 -0.465251
v 0.556282 -0.338042 0.343320
v 0.410521 -0.338517 0.489976
v -0.638420 -0.326297 -0.414863
v -0.568565 -0.326041 -0.476976
v -0.162714 1.914798 -0.506515
v -0.021050 1.910039 -0.505998
v 0.065293 -0.100497 -0.690296
v -0.012156 1.846285 -0.535661
v -0.148199 1.837625 -0.542348
v -0.275176 2.107100 -0.184838
v -0.226778 2.130279 -0.142283
v -0.092100 1.689237 -0.317897
v 0.009510 -0.021567 -0.462384
v -0.202857 1.851399 -0.076791
vn 0.9868 0.0551 0.1521
vn -0.9911 0.0813 -0.1051
vn -0.3572 0.9287 -0.0996
vn -0.0126 0.7612 0.6484
vn 0.0308 0.8626 -0.5049
vn 0.4066 0.9130 -0.0340
vn 0.1464 0.0124 0.9891
vn 0.1344 -0.3877 0.9120
vn 0.4521 0.7440 0.4920
vn 0.7099 0.0180 0.7040
vn 0.0107 0.0689 -0.9976
vn -0.6818 -0.7271 -0.0811
vn -0.6406 0.2748 -0.7171
vn -0.0387 0.8617 0.5059
vn -0.6618 0.0978 -0.7433
vn -0.8578 0.5079 -0.0785
vn 0.0175 0.4238 -0.9056
vn 0.9872 0.0885 0.1327
vn -0.9126 -0.2993 0.2784
vn -0.0039 0.0584 0.9983
vn -0.0029 -0.9999 -0.0107
vn 0.9315 0.3636 0.0110
vn -0.9866 -0.0024 0.1629
vn -0.4083 -0.7870 -0.4624
vn 0.6827 -0.7253 0.0881
vn 0.5308 -0.6707 0.5180
vn 0.0200 -0.6171 0.7867
vn 0.0025 -0.6909 -0.7230
vn -0.8872 -0.1762 -0.4263
vn -0.9436 0.0221 -0.3304
vn -0.9365 -0.0094 -0.3506
vn 0.0438 0.0808 -0.9958
vn -0.8984 -0.1719 -0.4041
vn 0.9037 0.4033 0.1439
vn 0.9697 0.2257 -0.0932
vn 0.8795 0.3734 0.2951
vn -0.9922 0.1086 -0.0614
vn -0.5677 0.8228 -0.0247
vn 0.5839 0.8118 -0.0063
vn 0.0408 0.0589 0.9974
vn 0.7090 0.0180 0.7050
vn 0.1893 0.8025 0.5659
vn 0.0263 0.5975 0.8014
vn -0.6615 0.0978 -0.7435
vn 0.9998 0.0182 -0.0071
vn 0.0266 0.0663 0.9974
vn -0.0070 -0.9999 -0.0120
vn -0.0071 -1.0000 -0.0050
vn -0.0016 -1.0000 -0.0048
vn -0.0018 -0.9999 -0.0111
vn 0.8665 -0.4990 0.0152
vn 0.5264 -0.6719 0.5210
vn -0.9736 -0.0388 -0.2249
vn 0.0109 0.0904 -0.9958
vn -0.9180 -0.0406 -0.3944
vn 0.9370 0.3221 0.1351
vn 0.9789 0.1204 -0.1650
vt 0.992344 0.061156
vt 0.955648 0.441904
vt 0.950602 0.072032
vt 0.007656 0.870409
vt 0.249895 0.499857
vt 0.265274 0.870280
vt 0.735342 0.914236
vt 0.798522 0.763600
vt 0.818386 0.856080
vt 0.732403 0.722146
vt 0.813577 0.735377
vt 0.925150 0.629166
vt 0.808974 0.629214
vt 0.930825 0.501577
vt 0.748338 0.521578
vt 0.395296 0.007656
vt 0.572541 0.316321
vt 0.396672 0.328630
vt 0.440945 0.372627
vt 0.543549 0.494699
vt 0.534942 0.495735
vt 0.533401 0.475545
vt 0.533635 0.877652
vt 0.007656 0.031409
vt 0.224251 0.224633
vt 0.067016 0.238135
vt 0.047480 0.253457
vt 0.069556 0.453708
vt 0.007656 0.460233
vt 0.267500 0.499832
vt 0.256281 0.475545
vt 0.732403 0.682370
vt 0.285080 0.870409
vt 0.045080 0.485040
vt 0.826605 0.930795
vt 0.732403 0.933734
vt 0.342051 0.490435
vt 0.300393 0.876836
vt 0.950602 0.505811
vt 0.990235 0.457217
vt 0.990235 0.517520
vt 0.664903 0.010207
vt 0.582439 0.008012
vt 0.111725 0.295929
vt 0.316851 0.402386
vt 0.169676 0.441777
vt 0.950602 0.007656
vt 0.980529 0.892516
vt 0.097847 0.306814
vt 0.346809 0.909823
vt 0.411141 0.388105
vt 0.387134 0.333499
vt 0.664695 0.372017
vt 0.562007 0.372297
vt 0.328259 0.277335
vt 0.558861 0.475545
vt 0.647686 0.503538
vt 0.616822 0.549779
vt 0.841953 0.664902
vt 0.762041 0.706834
vt 0.703020 0.571259
vt 0.704057 0.585000
vt 0.651629 0.597322
vt 0.935290 0.628739
vt 0.595660 0.949757
vt 0.244509 0.007656
vt 0.122998 0.019842
vt 0.733829 0.105415
vt 0.816731 0.087091
vt 0.783321 0.136613
vt 0.732403 0.122126
vt 0.779976 0.045252
vt 0.870848 0.007656
vt 0.751719 0.501577
vt 0.569054 0.007656
vt 0.543549 0.876047
vt 0.097662 0.022383
vt 0.744295 0.509502
vt 0.826182 0.943138
vt 0.717091 0.315927
vt 0.287710 0.427711
vt 0.503936 0.914334
vt 0.371822 0.211960
vt 0.558861 0.918836
vt 0.834352 0.486264
s 0
f 22/1/1 1/2/1 3/3/1
f 6/4/2 17/5/2 19/6/2
f 18/7/3 4/8/3 33/9/3
f 21/10/4 22/11/4 4/8/4
f 29/12/5 7/13/5 13/14/5
f 10/15/6 13/14/6 7/13/6
f 8/16/7 1/17/7 12/18/7
f 1/17/8 25/19/8 12/18/8
f 8/20/9 9/21/9 10/22/9
f 8/20/10 11/23/10 9/21/10
f 16/24/11 30/25/11 20/26/11
f 19/27/12 15/28/12 6/29/12
f 16/30/13 17/5/13 18/31/13
f 14/32/14 10/15/14 7/13/14
f 20/33/15 17/5/15 16/30/15
f 21/34/16 18/31/16 17/5/16
f 28/35/17 16/36/17 18/7/17
f 13/37/18 11/23/18 2/38/18
f 14/39/19 4/40/19 3/41/19
f 21/42/20 1/17/20 22/43/20
f 27/44/21 24/45/21 5/46/21
f 4/47/22 22/1/22 3/3/22
f 1/48/23 14/39/23 3/41/23
f 20/26/24 26/49/24 19/27/24
f 11/23/25 23/50/25 2/38/25
f 12/18/26 24/51/26 11/52/26
f 1/17/27 15/53/27 5/54/27
f 30/25/28 23/55/28 27/44/28
f 4/56/29 34/57/29 37/58/29
f 34/59/3 4/60/3 7/13/3
f 29/61/30 31/62/30 35/63/30
f 31/64/17 29/12/17 13/14/17
f 30/65/31 35/63/31 31/62/31
f 13/66/32 30/25/32 31/67/32
f 29/61/33 37/58/33 34/57/33
f 33/9/5 28/35/5 18/7/5
f 28/68/34 37/69/34 35/70/34
f 32/71/35 28/68/35 35/70/35
f 33/72/36 4/73/36 37/69/36
f 6/4/37 21/34/37 17/5/37
f 18/7/38 21/10/38 4/8/38
f 29/12/5 34/59/5 7/13/5
f 10/15/39 9/74/39 13/14/39
f 8/16/40 14/75/40 1/17/40
f 1/17/27 5/54/27 25/19/27
f 8/20/41 12/76/41 11/23/41
f 16/24/32 32/77/32 30/25/32
f 19/27/12 26/49/12 15/28/12
f 7/13/42 4/60/42 14/32/42
f 14/32/43 8/78/43 10/15/43
f 20/33/44 19/6/44 17/5/44
f 28/35/17 32/79/17 16/36/17
f 13/37/45 9/21/45 11/23/45
f 21/42/46 6/80/46 1/17/46
f 15/28/47 26/49/47 27/44/47
f 27/44/48 23/55/48 24/45/48
f 24/45/49 25/81/49 5/46/49
f 5/46/50 15/28/50 27/44/50
f 20/26/24 27/44/24 26/49/24
f 11/23/51 24/82/51 23/50/51
f 12/18/52 25/19/52 24/51/52
f 1/17/27 6/80/27 15/53/27
f 27/44/28 20/26/28 30/25/28
f 30/25/28 2/83/28 23/55/28
f 30/65/53 36/84/53 35/63/53
f 13/66/54 2/83/54 30/25/54
f 29/61/55 35/63/55 37/58/55
f 28/68/56 33/72/56 37/69/56
f 30/85/57 32/71/57 35/70/57
