# Blender 4.3.2
# www.blender.org
o GrassBlade
v 0.000000 1.216264 -1.914921
v -0.015287 1.216264 -1.914921
v 0.015287 1.216264 -1.914921
v 0.053320 1.168813 -1.650229
v -0.053320 1.168813 -1.650229
v -0.000000 1.122116 -1.618653
v -0.000000 0.962771 -1.442773
v -0.062303 1.025521 -1.451692
v 0.062303 1.025521 -1.451692
v 0.064018 0.808346 -1.340593
v -0.064018 0.808346 -1.340593
v 0.000000 0.744389 -1.354668
v 0.000000 0.501369 -1.323235
v -0.064018 0.561454 -1.297216
v 0.064018 0.561454 -1.297216
v 0.056670 0.357354 -1.292030
v -0.056670 0.357354 -1.292030
v 0.000000 0.306544 -1.321936
v 0.000000 -0.051399 -1.315152
v -0.000000 0.103669 -1.334777
v -0.050284 0.146969 -1.302586
v 0.050284 0.146969 -1.302586
v -0.050284 -0.051399 -1.315152
v 0.050284 -0.051399 -1.315152
vn -0.5452 -0.6213 -0.5629
vn -0.5481 -0.7971 -0.2533
vn 0.3629 -0.1612 -0.9178
vn 0.3125 -0.4307 -0.8467
vn 0.4443 0.0314 -0.8953
vn 0.4065 -0.0378 -0.9129
vn -0.5002 -0.3240 -0.8030
vn -0.4638 -0.1136 -0.8786
vn -0.4708 -0.0059 -0.8822
vn -0.5046 0.0545 -0.8616
vn -0.0000 -0.9843 -0.1765
vn 0.3310 -0.7580 -0.5620
vn -0.0000 -0.1256 -0.9921
vn -0.3310 -0.7580 -0.5620
vn 0.4638 -0.1136 -0.8786
vn 0.5002 -0.3240 -0.8030
vn 0.5046 0.0545 -0.8616
vn 0.4708 -0.0059 -0.8822
vn -0.3125 -0.4307 -0.8467
vn -0.3629 -0.1612 -0.9178
vn -0.4065 -0.0378 -0.9129
vn -0.4443 0.0314 -0.8953
vn 0.5481 -0.7971 -0.2533
vn 0.5452 -0.6213 -0.5629
vn -0.0000 0.0632 -0.9980
vn 0.5046 0.0546 -0.8616
vn -0.5965 -0.1008 -0.7962
s 0
f 8//1 6//1 7//1
f 5//2 1//2 6//2
f 15//3 12//3 10//3
f 10//4 7//4 9//4
f 22//5 18//5 16//5
f 16//6 13//6 15//6
f 11//7 7//7 12//7
f 14//8 12//8 13//8
f 17//9 13//9 18//9
f 21//10 18//10 20//10
f 4//11 1//11 3//11
f 9//12 6//12 4//12
f 19//13 20//13 24//13
f 8//14 5//14 6//14
f 5//11 2//11 1//11
f 15//15 13//15 12//15
f 10//16 12//16 7//16
f 22//17 20//17 18//17
f 16//18 18//18 13//18
f 11//19 8//19 7//19
f 14//20 11//20 12//20
f 17//21 14//21 13//21
f 21//22 17//22 18//22
f 4//23 6//23 1//23
f 9//24 7//24 6//24
f 19//25 23//25 21//25
f 20//26 22//26 24//26
f 19//27 21//27 20//27
